# xmcd
#
# Track frame offsets:
#	150
#	36390
#	63465
#	86421
#	99128
#	172810
#
# Disc length: 2658 seconds
#
# Revision: 0
# Processed by: cddbd v1.5.2PL0 Copyright (c) Steve Scherf et al.
# Submitted via: EasyCDDAExtractor 9.0.0.1
#
DISCID=3e0a6006
DTITLE=Black Sabbath - Le Colisee Colisuem Quebec City 18-11-81 Disc 2
DYEAR=1981
DGENRE=Hard Rock
TTITLE0=Slipping Away - Drum Solo - Slipping Away Reprise
TTITLE1=Falling Off The Edge Of The World
TTITLE2=The Mob Rules
TTITLE3=Paranoid
TTITLE4=Heaven And Hell - Improvisation - Heaven And Hell Reprise
TTITLE5=Children Of The Grave - Outro-Fluff
EXTD=
EXTT0=
EXTT1=
EXTT2=
EXTT3=
EXTT4=
EXTT5=
PLAYORDER=
